<?xml version="1.0" standalone="no"?>
<!DOCTYPE svg PUBLIC "-//W3C//DTD SVG 20010904//EN"
 "http://www.w3.org/TR/2001/REC-SVG-20010904/DTD/svg10.dtd">
<svg version="1.0" xmlns="http://www.w3.org/2000/svg"
 width="2598.000000pt" height="3464.000000pt" viewBox="0 0 2598.000000 3464.000000"
 preserveAspectRatio="xMidYMid meet">

<g transform="translate(0.000000,3464.000000) scale(0.100000,-0.100000)"
fill="#000000" stroke="none">
<path d="M10950 33940 c-44 -8 -80 -23 -150 -61 -27 -15 -55 -19 -126 -19
-113 0 -192 -22 -205 -57 -19 -50 -11 -71 36 -99 25 -14 45 -30 45 -34 0 -5
-15 -13 -34 -19 -19 -5 -52 -23 -74 -41 -37 -29 -44 -31 -108 -28 l-69 3 -3
31 c-2 18 4 48 12 67 13 31 13 37 0 48 -28 23 -189 -23 -221 -63 -6 -7 -13
-32 -16 -55 -5 -45 -36 -79 -101 -115 -42 -23 -46 -22 -46 11 0 17 -5 33 -10
36 -6 4 -36 -5 -67 -19 -62 -29 -85 -23 -77 20 5 29 8 29 -111 -13 -38 -13
-97 -33 -129 -43 -63 -20 -81 -36 -65 -57 15 -17 -40 -43 -93 -43 -24 0 -61
-5 -83 -11 -22 -5 -109 -11 -193 -13 -140 -2 -155 -4 -180 -25 -46 -37 -129
-72 -205 -86 -75 -14 -178 -47 -212 -69 -11 -7 -48 -20 -83 -29 -76 -19 -127
-48 -126 -70 2 -16 -78 -53 -163 -76 -34 -10 -51 -23 -83 -66 -22 -30 -44 -55
-48 -55 -4 0 -30 -18 -57 -41 -27 -23 -79 -56 -115 -74 -42 -21 -70 -43 -78
-59 -17 -37 -50 -54 -124 -65 -61 -8 -108 -25 -108 -37 0 -2 7 -21 15 -41 8
-19 15 -43 15 -52 0 -25 -39 -58 -86 -74 -66 -24 -206 -124 -259 -187 -49 -57
-75 -73 -75 -47 0 7 -6 21 -13 31 -19 25 -52 13 -72 -26 -13 -28 -14 -34 -1
-46 11 -12 23 -13 54 -5 34 9 41 8 50 -8 24 -37 14 -75 -27 -110 -21 -19 -54
-43 -72 -54 -24 -14 -37 -32 -46 -64 -9 -31 -32 -64 -77 -111 -50 -51 -66 -75
-71 -106 -4 -21 -14 -63 -22 -91 -14 -48 -14 -57 1 -96 29 -76 9 -268 -28
-275 -15 -3 -18 1 -14 22 8 41 -18 196 -36 215 -15 14 -21 11 -72 -41 -41 -42
-70 -62 -108 -74 -62 -20 -72 -29 -80 -74 -6 -34 -4 -36 26 -45 40 -12 57 -52
57 -138 1 -54 -2 -62 -33 -93 -19 -19 -41 -34 -49 -34 -9 0 -18 -8 -21 -18 -8
-24 -45 -58 -73 -67 -38 -11 -28 17 23 66 l45 44 -3 67 c-2 37 -7 70 -11 74
-13 13 -59 -40 -88 -101 -33 -68 -36 -97 -14 -119 24 -24 9 -66 -31 -82 -41
-17 -45 -24 -46 -75 0 -29 -10 -55 -35 -92 -56 -83 -64 -104 -70 -180 -3 -47
-20 -116 -49 -200 -24 -71 -44 -141 -44 -155 0 -15 -14 -72 -31 -127 -16 -55
-41 -163 -55 -240 -23 -127 -24 -149 -14 -240 6 -55 15 -118 21 -140 6 -22 15
-85 19 -140 5 -55 16 -129 26 -165 16 -57 18 -117 19 -500 0 -320 4 -456 14
-516 15 -88 14 -97 -45 -389 -36 -175 -41 -320 -15 -415 12 -41 28 -104 37
-140 8 -36 29 -105 44 -155 31 -95 52 -214 70 -379 6 -55 24 -149 40 -210 16
-61 34 -148 39 -193 11 -90 30 -167 60 -254 11 -31 32 -124 46 -207 14 -84 37
-200 50 -260 14 -59 30 -156 36 -217 6 -60 24 -164 39 -230 16 -66 34 -151 40
-190 6 -38 19 -101 30 -140 50 -183 53 -213 46 -507 -8 -343 -9 -347 -96 -381
l-35 -14 40 -38 c38 -36 95 -153 95 -194 0 -10 11 -51 25 -91 18 -53 25 -94
24 -144 -1 -93 -11 -158 -26 -163 -13 -5 -153 129 -153 146 0 5 -26 36 -58 68
-31 33 -72 78 -91 102 -32 41 -115 91 -151 91 -27 0 -69 -48 -75 -87 -10 -56
-25 -104 -45 -138 -10 -16 -31 -71 -48 -120 l-31 -91 15 -84 c13 -76 13 -92
-1 -152 -8 -37 -30 -100 -48 -140 -36 -79 -62 -187 -52 -218 8 -24 60 -28 84
-6 34 30 144 86 169 86 15 -1 38 -7 52 -15 38 -22 67 -19 76 8 12 37 94 166
151 238 42 53 61 68 89 73 19 4 38 5 43 2 10 -7 21 -67 27 -156 3 -36 9 -94
14 -130 11 -79 3 -265 -15 -340 -8 -30 -16 -128 -20 -217 -3 -89 -10 -186 -15
-214 -5 -28 -7 -56 -3 -62 7 -12 32 -448 27 -492 -1 -16 -8 -109 -15 -205 -10
-162 -10 -185 10 -315 44 -293 44 -337 1 -539 -9 -43 -7 -55 14 -105 15 -33
27 -87 31 -131 4 -41 20 -114 36 -163 16 -48 29 -94 29 -102 0 -9 11 -37 24
-63 13 -26 32 -74 41 -107 10 -33 31 -103 47 -155 16 -52 34 -133 39 -180 11
-101 29 -153 76 -223 55 -80 82 -147 92 -223 5 -38 22 -109 39 -159 21 -61 34
-128 42 -210 15 -145 33 -232 60 -285 11 -22 29 -90 40 -152 13 -76 29 -132
49 -172 16 -33 35 -90 41 -128 7 -38 29 -103 50 -148 22 -43 42 -96 45 -117 9
-52 35 -134 50 -158 6 -11 20 -45 30 -75 10 -30 27 -68 39 -85 29 -41 61 -113
69 -154 4 -19 19 -50 34 -69 14 -19 33 -53 42 -76 35 -90 189 -298 231 -311
10 -3 35 -26 55 -51 24 -29 56 -54 91 -69 40 -18 57 -32 72 -62 11 -21 32 -49
47 -63 15 -14 35 -41 46 -62 10 -20 32 -46 47 -57 22 -15 34 -36 46 -83 10
-35 31 -106 48 -158 28 -86 30 -99 20 -146 -17 -84 -55 -154 -130 -240 -39
-45 -77 -95 -85 -110 -8 -16 -26 -41 -39 -54 -22 -22 -34 -42 -70 -114 -6 -10
-18 -33 -27 -50 -22 -39 -24 -49 -25 -171 0 -75 4 -112 18 -148 16 -39 18 -63
13 -137 -6 -78 -3 -104 23 -212 17 -68 35 -137 40 -154 14 -44 12 -105 -5
-138 -8 -15 -15 -50 -15 -77 0 -26 -5 -51 -10 -54 -6 -3 -10 -45 -10 -92 0
-68 4 -90 18 -106 12 -14 17 -34 15 -76 -2 -79 -14 -164 -23 -176 -5 -5 -16
-77 -26 -160 -14 -113 -23 -154 -36 -167 -15 -15 -18 -35 -18 -112 0 -85 -2
-94 -20 -99 -11 -3 -23 -13 -26 -24 -3 -10 -10 -28 -16 -40 -6 -12 -7 -36 -4
-55 4 -18 11 -60 15 -93 5 -33 13 -79 20 -102 6 -24 16 -62 21 -85 6 -24 19
-63 29 -88 10 -25 33 -90 51 -145 18 -55 58 -155 91 -222 32 -67 72 -164 89
-215 18 -51 50 -126 72 -167 22 -40 46 -97 54 -127 7 -30 33 -93 58 -141 24
-49 51 -113 59 -144 9 -30 26 -64 38 -75 24 -21 109 -189 109 -215 0 -27 29
-89 86 -185 30 -50 54 -95 54 -101 0 -6 16 -34 35 -62 19 -28 35 -53 35 -55 0
-3 15 -31 34 -63 19 -32 42 -87 51 -121 10 -35 35 -90 56 -123 21 -33 47 -76
58 -97 28 -55 131 -142 241 -204 25 -14 87 -66 137 -115 51 -49 125 -111 165
-137 40 -25 83 -62 95 -80 20 -31 187 -176 251 -218 35 -23 100 -24 109 -2 3
9 1 25 -5 35 -7 10 -12 52 -12 92 0 40 -5 78 -10 83 -6 6 -13 35 -17 65 -4 32
-13 60 -23 69 -10 9 -20 38 -24 73 -4 31 -12 57 -17 57 -5 0 -9 11 -9 25 0 14
-4 25 -10 25 -5 0 -10 11 -10 24 0 13 -6 27 -12 30 -10 5 -10 7 0 12 8 4 12
28 12 70 0 56 2 64 19 64 15 0 20 10 26 48 4 31 13 54 26 63 27 19 27 89 0 89
-15 0 -19 11 -24 65 -4 45 -12 72 -26 86 -12 13 -23 43 -27 78 -6 51 -31 105
-66 142 -22 24 -48 79 -48 102 -1 12 -7 33 -15 47 -8 14 -14 35 -15 48 0 12
-4 22 -10 22 -5 0 -10 11 -10 24 0 14 -4 27 -9 30 -5 3 -12 23 -16 43 -10 57
-29 113 -37 113 -5 0 -8 13 -8 29 0 16 -7 36 -15 45 -8 8 -15 21 -15 29 0 7
-11 20 -25 27 -15 8 -25 22 -25 35 0 12 -8 30 -19 39 -40 37 -56 127 -56 326
0 169 2 188 21 220 22 37 54 52 54 26 0 -13 13 -16 67 -16 37 0 83 -5 102 -12
120 -39 152 -53 177 -79 15 -16 32 -29 37 -29 5 0 22 -11 39 -25 16 -13 48
-29 71 -35 23 -6 64 -20 91 -30 27 -11 58 -20 70 -20 12 0 26 -4 32 -9 5 -5
45 -21 89 -36 44 -15 84 -31 89 -36 6 -5 18 -9 28 -9 19 0 61 -24 87 -49 19
-17 82 -44 146 -61 28 -7 63 -20 80 -28 16 -8 61 -21 100 -29 38 -8 88 -23
110 -33 83 -37 118 -50 139 -50 12 0 39 -9 61 -20 22 -11 53 -20 70 -20 17 0
40 -7 51 -15 10 -8 34 -15 52 -15 17 0 32 -3 32 -7 0 -16 57 -34 130 -43 41
-6 102 -18 135 -27 42 -11 119 -18 257 -22 138 -4 201 -10 210 -18 25 -26 273
-11 503 31 44 8 136 15 204 15 127 1 326 30 388 57 17 8 51 14 76 14 28 0 64
9 94 24 56 28 125 46 180 46 42 1 184 31 253 54 25 8 81 22 125 32 44 9 97 25
117 35 21 9 66 20 100 24 38 4 86 19 121 36 32 16 72 29 90 29 24 0 41 9 61
29 15 16 44 32 63 36 20 3 43 10 52 15 38 19 68 29 103 35 45 7 92 28 137 60
19 14 44 25 56 25 11 0 30 7 41 15 10 8 26 15 35 15 9 0 36 21 59 46 23 25 57
52 75 60 19 7 36 18 40 23 6 11 63 41 77 41 16 0 132 61 185 97 28 19 57 48
63 63 6 15 27 42 46 61 19 18 34 37 34 41 0 5 9 22 21 37 14 20 23 49 26 92 5
61 4 66 -26 96 -17 18 -49 42 -71 53 -22 11 -40 24 -40 29 0 5 -12 14 -27 20
-16 6 -35 15 -43 20 -25 16 -87 41 -102 41 -24 1 -60 38 -51 54 9 16 76 67
126 95 189 107 237 138 269 171 34 35 43 39 85 38 74 -1 148 16 173 40 13 12
33 24 44 28 24 6 44 14 99 38 21 9 51 16 68 16 22 0 50 16 100 56 69 55 89 84
89 127 0 25 31 58 108 118 36 27 59 55 74 87 56 128 68 150 105 192 22 25 47
65 57 89 9 24 36 69 59 100 87 115 127 185 127 222 0 11 9 38 19 62 11 23 34
96 51 162 18 68 49 153 71 197 35 68 41 89 46 165 5 87 -6 178 -42 333 -17 74
-45 230 -54 305 -3 28 -3 80 2 117 9 80 68 239 106 288 16 20 38 54 50 77 11
24 34 57 50 75 15 18 36 47 45 65 9 18 26 37 37 44 12 6 29 30 40 54 10 23 34
54 54 69 19 15 43 45 53 69 11 23 29 51 41 61 11 11 26 38 32 60 6 23 25 57
43 78 17 20 58 69 91 109 33 40 77 89 97 109 20 20 51 65 68 101 53 110 114
225 133 250 10 13 24 47 33 75 8 28 24 60 35 70 29 26 54 78 69 144 7 31 25
69 41 87 26 30 37 82 38 181 0 15 16 37 43 62 l43 38 -3 130 c-1 71 2 141 7
155 6 15 25 40 43 56 31 28 33 34 36 108 2 44 -1 96 -6 117 -9 32 -8 40 8 56
35 35 43 59 29 92 -9 22 -17 28 -31 24 -10 -3 -27 -9 -38 -12 -16 -5 -20 -2
-20 15 0 11 5 21 10 21 6 0 10 19 10 43 0 23 5 59 11 81 10 36 9 40 -21 71
-34 35 -32 65 5 65 28 0 74 45 81 79 21 108 38 153 61 168 37 24 45 4 40 -105
-5 -100 -22 -142 -57 -142 -19 0 -20 -7 -20 -145 0 -88 4 -145 10 -145 5 0 12
12 16 28 34 156 47 190 78 202 17 6 36 34 64 92 38 77 42 93 57 238 22 210 38
294 69 365 15 34 26 79 26 105 0 25 9 77 19 115 68 247 89 422 74 618 -6 86
-5 137 4 190 8 39 17 194 21 342 5 149 12 277 17 285 5 8 9 86 10 174 1 89 7
197 13 241 40 286 39 393 -3 530 -32 102 -34 207 -5 270 11 24 43 101 71 172
40 102 59 135 90 164 57 53 52 99 -11 99 -25 0 -31 21 -37 127 -5 80 -3 100
17 153 12 33 31 65 41 71 11 5 26 21 35 34 13 20 14 28 4 40 -10 12 -9 20 4
40 9 14 20 25 24 25 12 0 39 52 47 90 3 19 18 61 33 93 20 45 35 63 63 78 48
24 55 35 29 49 -36 19 -41 51 -25 177 8 65 15 171 15 235 0 74 7 155 20 220
31 163 50 294 50 341 0 24 21 124 46 222 29 114 55 246 70 360 13 99 30 207
39 240 18 73 32 217 45 481 7 148 18 243 44 383 35 190 38 217 56 424 7 81 19
146 39 205 16 48 32 107 36 132 15 98 46 239 60 281 50 139 44 698 -9 859 -8
25 -17 83 -20 130 -2 47 -12 121 -21 165 -11 52 -15 101 -11 140 3 33 2 115
-2 183 -7 102 -12 127 -30 152 -15 19 -26 56 -33 107 -13 97 -35 185 -60 241
-10 23 -26 77 -35 120 -21 104 -35 133 -83 180 l-41 40 6 59 c6 56 4 66 -40
162 -25 56 -66 130 -91 165 -25 35 -45 68 -45 73 0 6 -11 22 -26 38 -14 15
-39 53 -56 84 -17 31 -39 65 -49 76 -10 11 -27 44 -38 72 -11 29 -34 71 -50
93 -18 25 -35 68 -46 116 -21 96 -68 148 -82 93 -6 -21 -6 -21 -19 2 -7 13
-13 20 -13 14 0 -5 6 -21 14 -35 8 -14 14 -36 15 -50 0 -15 5 -31 12 -38 25
-25 1 -20 -30 6 -27 24 -32 34 -32 73 0 40 4 47 26 58 30 13 29 33 -1 106 -19
43 -150 184 -203 217 -19 11 -42 39 -53 64 -23 47 -53 64 -75 42 -11 -11 -11
-18 1 -42 20 -38 19 -46 -8 -46 -41 0 -64 25 -71 79 -4 28 -11 53 -16 56 -6 4
-19 24 -31 46 -26 52 -87 119 -108 119 -44 1 -84 52 -95 120 -6 37 -19 57 -51
80 -24 17 -35 33 -35 51 0 25 -55 89 -77 89 -16 0 -60 55 -88 110 -39 77 -103
105 -175 76 -22 -9 -62 -16 -89 -16 -43 0 -53 4 -75 31 -26 31 -35 82 -16 94
6 3 10 15 10 26 0 20 -5 23 -104 55 -80 27 -104 58 -89 116 9 34 8 47 -5 75
-9 18 -19 33 -23 33 -3 0 -12 13 -19 29 -12 30 -61 58 -93 53 -25 -5 -39 38
-24 77 10 28 8 33 -39 84 -58 65 -81 76 -155 78 -70 3 -83 -5 -75 -44 3 -17 1
-36 -5 -43 -14 -17 -63 -18 -77 -1 -12 15 -42 92 -49 127 -4 24 -3 25 41 22
40 -4 46 -2 46 16 0 26 -19 41 -77 58 -26 8 -59 25 -73 39 -14 13 -57 46 -95
72 -44 30 -82 66 -102 97 -39 59 -83 106 -100 106 -7 0 -27 -9 -45 -20 -54
-33 -77 -27 -141 39 -43 44 -68 61 -102 70 -38 9 -45 15 -45 35 0 31 41 42 99
26 23 -6 46 -8 51 -5 24 15 4 39 -72 88 -108 69 -273 123 -403 131 -55 3 -120
15 -168 31 -128 41 -166 66 -210 136 -12 20 -27 28 -64 34 -26 4 -77 20 -112
37 -34 16 -107 38 -161 48 -55 10 -110 26 -125 36 -14 9 -57 22 -96 30 -39 7
-92 26 -118 41 -68 41 -82 45 -113 32 -24 -10 -28 -17 -28 -49 0 -34 -4 -39
-31 -49 -39 -13 -91 -1 -140 32 -29 19 -40 22 -64 14 -17 -5 -31 -11 -33 -13
-7 -5 19 -44 29 -44 6 0 25 -11 43 -25 22 -16 46 -25 70 -25 44 0 76 -15 76
-35 0 -24 -75 -20 -100 5 -16 16 -33 20 -94 20 -41 0 -77 4 -80 9 -3 5 -66 6
-141 3 -130 -5 -138 -4 -227 26 -95 31 -190 45 -333 48 -78 2 -177 11 -223 20
-14 3 -27 16 -33 34 -15 41 -52 51 -125 34 -33 -7 -93 -14 -134 -14 -73 -1
-188 -11 -320 -28 -78 -11 -140 -5 -140 13 0 13 75 55 99 55 17 0 41 25 41 43
0 8 -14 17 -31 21 -49 9 -200 7 -238 -4 -23 -6 -57 -6 -103 2 -54 9 -74 8 -93
-2 -16 -8 -42 -11 -75 -7 -35 4 -75 0 -127 -13 -54 -13 -82 -16 -95 -9 -25 14
-23 28 13 65 17 18 28 37 25 43 -13 20 -99 12 -156 -15 -82 -38 -134 -40 -310
-8 -183 33 -228 35 -241 11 -6 -10 -22 -17 -39 -17 -28 0 -50 15 -30 22 18 6
-6 28 -35 32 -17 2 -50 1 -75 -4z m3374 -476 c22 -8 20 -27 -5 -42 -25 -16
-59 -6 -59 17 0 30 25 40 64 25z m1251 -250 c29 -19 24 -34 -10 -34 -24 0 -51
31 -38 44 10 10 22 7 48 -10z m2210 -1623 c-14 -12 -65 -23 -65 -13 0 16 13
22 44 22 17 0 26 -4 21 -9z m130 -242 c-8 -12 -35 -12 -35 0 0 11 22 20 33 14
4 -2 5 -9 2 -14z m-4437 -184 c43 -29 56 -34 63 -23 5 7 9 16 9 21 0 24 131
-31 169 -72 36 -38 107 -77 166 -92 28 -6 67 -20 87 -30 24 -12 59 -19 97 -19
69 0 141 -24 193 -64 19 -14 43 -26 53 -26 9 0 49 -33 89 -72 71 -73 101 -96
210 -159 32 -19 73 -47 90 -64 30 -28 36 -30 141 -36 87 -4 119 -10 154 -28
24 -13 65 -29 90 -37 26 -7 62 -25 81 -39 18 -14 47 -25 62 -25 16 0 39 -9 51
-21 24 -22 101 -59 123 -59 46 0 217 -76 269 -119 11 -9 46 -25 78 -36 32 -10
68 -29 80 -41 22 -22 129 -64 164 -64 10 0 36 -11 59 -24 22 -13 61 -26 85
-29 113 -14 229 -40 293 -66 39 -16 95 -33 125 -40 71 -15 152 -43 231 -79 53
-24 82 -30 155 -34 103 -5 156 -27 241 -104 54 -48 105 -75 174 -92 65 -16
130 -47 174 -81 78 -63 146 -131 176 -177 56 -89 207 -232 365 -344 160 -114
282 -224 326 -292 17 -25 39 -79 51 -120 27 -96 39 -119 95 -172 44 -42 46
-48 45 -96 0 -33 -8 -60 -21 -79 -25 -34 -26 -66 -7 -118 23 -62 27 -92 15
-116 -7 -12 -12 -54 -11 -94 2 -66 0 -74 -27 -105 -15 -18 -32 -47 -35 -65 -4
-17 -18 -39 -32 -47 -27 -19 -32 -61 -10 -111 10 -24 10 -34 -1 -55 -7 -14
-13 -32 -13 -41 0 -20 -28 -46 -55 -51 -32 -5 -32 -61 -1 -99 29 -35 29 -33
16 -113 -6 -41 -17 -68 -35 -86 -31 -33 -31 -50 0 -116 18 -39 23 -59 16 -71
-18 -35 -41 -91 -41 -102 0 -15 -20 -50 -44 -78 -18 -21 -18 -22 8 -50 18 -19
26 -39 26 -65 0 -54 -8 -68 -41 -68 -61 0 -50 -60 25 -133 55 -54 70 -85 86
-180 7 -44 19 -70 58 -120 47 -61 49 -67 45 -114 -5 -49 -4 -51 38 -86 l44
-35 -3 -139 c-2 -149 -6 -197 -23 -343 -10 -86 -10 -99 6 -130 14 -26 16 -44
10 -84 -8 -54 -10 -137 -14 -610 -2 -251 -5 -298 -21 -350 -16 -49 -17 -68 -9
-103 6 -23 8 -62 5 -85 -20 -138 -28 -334 -28 -743 -1 -385 2 -482 17 -595 15
-113 17 -183 12 -435 -3 -165 -10 -315 -16 -334 -6 -18 -13 -115 -17 -215 -4
-99 -11 -192 -17 -206 -9 -24 -16 -99 -36 -420 -9 -139 -24 -255 -43 -325 -6
-22 -13 -67 -15 -101 -4 -59 -6 -63 -64 -120 -58 -57 -59 -59 -59 -114 0 -40
-8 -72 -26 -109 -14 -30 -23 -58 -20 -65 3 -6 10 -18 14 -26 5 -8 15 -28 23
-45 13 -27 20 -30 60 -30 63 0 69 -7 69 -82 0 -110 -43 -153 -152 -153 -52 0
-58 -2 -58 -20 0 -13 -10 -24 -25 -30 -23 -9 -25 -14 -25 -74 0 -77 -6 -96
-31 -96 -10 0 -19 -4 -19 -10 0 -5 -9 -10 -20 -10 -13 0 -24 -10 -30 -26 -15
-38 -11 -145 5 -174 19 -33 19 -78 -1 -97 -13 -13 -15 -34 -12 -104 3 -81 1
-89 -21 -113 -24 -25 -24 -28 -13 -103 16 -103 15 -110 -7 -123 -24 -12 -48
-4 -56 19 -6 19 -80 56 -94 47 -17 -11 -23 -86 -10 -136 7 -28 16 -50 21 -50
23 0 48 -47 48 -91 0 -40 4 -51 27 -69 68 -53 84 -134 37 -189 -14 -17 -28
-46 -31 -66 -3 -20 -14 -40 -24 -46 -22 -11 -49 -60 -49 -88 0 -11 14 -36 31
-56 30 -34 31 -38 18 -62 -10 -18 -13 -53 -11 -111 3 -101 -9 -122 -70 -122
l-38 0 0 -58 c0 -56 -1 -59 -32 -73 -28 -12 -34 -23 -51 -86 -21 -81 -29 -86
-112 -77 -49 6 -52 5 -81 -29 -20 -21 -38 -59 -49 -101 -10 -36 -21 -66 -25
-66 -4 0 -17 8 -29 18 -18 14 -23 33 -30 117 -5 55 -13 112 -16 127 -5 18 -1
40 9 63 18 37 36 46 36 18 0 -10 10 -31 23 -47 22 -27 24 -27 40 -12 9 10 17
25 17 33 0 21 -29 53 -47 53 -17 0 -17 29 1 36 10 4 13 32 14 110 1 74 6 113
18 135 21 41 12 86 -25 122 -44 43 -70 34 -102 -34 -20 -41 -36 -59 -59 -69
-29 -12 -31 -17 -29 -54 3 -70 1 -74 -41 -87 -22 -7 -45 -18 -51 -26 -16 -19
-27 -16 -54 15 -15 16 -24 40 -25 59 0 19 -10 43 -25 61 -26 30 -34 82 -14 82
8 0 10 22 7 73 -6 80 -29 133 -70 156 -23 13 -29 13 -52 -3 -41 -26 -63 -71
-71 -141 -4 -40 -14 -74 -26 -89 -13 -17 -19 -40 -19 -78 0 -44 5 -59 28 -85
15 -18 37 -33 48 -33 24 0 44 -18 44 -41 0 -24 -20 -29 -74 -17 -57 12 -73 7
-88 -29 -7 -15 -20 -40 -30 -55 -10 -14 -21 -54 -24 -90 -5 -49 -12 -69 -34
-93 -15 -16 -30 -38 -33 -47 -4 -10 -13 -18 -21 -18 -35 0 -46 -40 -46 -165 0
-163 1 -165 60 -165 l47 0 6 -57 c15 -134 37 -300 43 -325 l6 -27 -78 -3 c-71
-3 -79 -5 -82 -24 -2 -17 -15 -23 -69 -34 -68 -15 -84 -30 -65 -61 28 -45 3
-117 -50 -144 -95 -49 -139 -42 -210 31 -35 35 -64 56 -85 60 -18 3 -33 10
-33 15 0 15 -47 10 -53 -5 -3 -8 -22 -18 -41 -21 -43 -9 -96 -51 -96 -78 0
-12 9 -31 21 -43 l21 -22 -21 -18 c-17 -15 -21 -30 -21 -81 0 -57 -2 -63 -21
-63 -12 0 -30 -11 -41 -25 -14 -18 -29 -25 -53 -25 -30 0 -33 -3 -39 -35 -5
-23 -20 -47 -43 -68 -61 -54 -141 -141 -173 -188 -23 -35 -30 -55 -30 -96 0
-36 -4 -53 -12 -53 -16 0 -86 -79 -110 -123 -10 -18 -18 -47 -18 -65 0 -18 -7
-49 -15 -69 -8 -19 -15 -48 -15 -63 0 -43 -21 -54 -92 -47 -81 7 -108 -3 -108
-43 0 -21 -12 -42 -43 -75 -38 -39 -49 -45 -85 -45 -44 0 -62 -17 -62 -60 0
-15 -11 -25 -35 -36 -19 -8 -35 -19 -35 -25 0 -16 -51 -59 -70 -59 -9 0 -38
11 -64 25 -55 29 -73 31 -97 9 -10 -9 -38 -19 -61 -21 -39 -5 -47 -1 -83 31
-46 43 -81 47 -97 12 -14 -31 -31 -38 -64 -26 -51 20 -99 12 -127 -20 -20 -22
-36 -30 -61 -30 -39 0 -51 -12 -60 -62 -6 -34 -10 -37 -49 -43 -51 -9 -67 -20
-67 -51 0 -19 -6 -23 -37 -26 -29 -2 -40 -9 -53 -33 -11 -21 -26 -31 -46 -33
-16 -2 -32 -8 -35 -14 -3 -5 -9 3 -12 19 -7 37 -73 83 -118 83 -17 0 -42 9
-56 20 -34 27 -45 25 -70 -9 -27 -36 -75 -47 -116 -26 -40 20 -52 19 -87 -7
-27 -20 -32 -20 -67 -7 -28 11 -43 25 -58 56 -24 49 -53 83 -71 83 -7 0 -25
12 -40 26 l-26 27 -54 -57 c-29 -31 -59 -56 -67 -56 -28 0 -54 30 -61 72 -7
41 -21 68 -36 68 -5 0 -23 -12 -41 -27 l-32 -27 -39 47 c-55 64 -74 62 -121
-12 -21 -32 -49 -63 -62 -69 -14 -6 -25 -18 -25 -27 0 -20 -43 -20 -60 0 -7 8
-31 20 -54 27 -22 6 -52 22 -66 34 l-25 23 -44 -29 c-52 -35 -62 -36 -118 -10
-43 19 -43 19 -40 67 l2 48 -49 3 c-43 3 -53 0 -81 -28 l-31 -30 -24 25 c-13
14 -27 25 -32 25 -19 0 -48 -42 -48 -70 0 -61 -70 -100 -116 -65 -10 8 -38 15
-62 15 -37 0 -45 4 -60 30 -23 40 -47 38 -76 -8 -53 -85 -125 -100 -196 -41
-24 20 -48 51 -54 69 -9 28 -20 36 -71 55 -67 24 -108 45 -146 76 -14 11 -43
24 -65 29 -54 12 -167 -26 -235 -80 -38 -30 -60 -40 -87 -40 -21 0 -61 -7 -91
-15 -72 -19 -109 -11 -147 34 -29 33 -36 36 -85 36 -30 -1 -68 -7 -85 -15 -29
-12 -36 -11 -85 14 -46 25 -61 28 -110 22 -43 -4 -60 -2 -69 9 -22 27 -73 45
-125 45 l-52 0 -6 45 c-5 50 -30 85 -58 85 -10 0 -26 12 -36 26 -10 15 -29 37
-42 50 -16 16 -25 39 -28 71 -3 27 -13 57 -22 68 -23 27 -48 85 -56 128 -4 19
-20 48 -36 63 -23 22 -29 36 -29 71 0 24 -4 43 -10 43 -6 0 -10 28 -10 65 0
40 4 65 11 65 6 0 8 11 5 28 -4 16 0 39 9 56 8 15 15 34 15 41 0 8 10 15 23
17 21 3 22 8 25 90 3 93 -7 128 -36 128 -25 0 -54 37 -59 79 -4 26 -14 41 -37
56 -21 14 -32 30 -34 50 -2 17 -8 35 -13 41 -6 7 -7 40 -3 77 6 57 4 71 -15
102 -11 20 -21 45 -21 56 0 12 -26 47 -60 81 -66 67 -73 91 -35 127 22 20 25
31 25 94 0 71 20 146 47 178 7 8 13 20 13 26 0 17 36 84 42 78 3 -4 17 5 31
19 26 26 40 29 107 26 31 -1 77 22 100 51 5 6 107 74 144 96 12 7 42 13 67 13
51 0 75 -18 81 -60 2 -18 17 -32 57 -53 48 -25 61 -28 108 -22 50 6 53 8 53
35 0 21 -8 33 -29 46 -32 19 -47 43 -54 87 -3 21 2 32 23 47 16 11 31 20 35
20 4 0 15 9 25 20 25 29 163 90 202 90 79 0 108 -11 124 -47 31 -65 76 -67
174 -8 32 19 62 35 67 35 4 0 44 14 87 30 43 17 87 28 97 25 10 -3 36 3 58 15
26 13 59 20 96 20 32 0 69 7 87 16 23 12 49 15 97 12 36 -3 81 0 100 5 23 6
48 5 77 -3 36 -10 58 -10 126 3 46 9 156 18 246 21 134 4 181 1 265 -15 56
-10 131 -19 166 -19 35 0 91 -7 125 -16 66 -17 101 -14 291 27 105 22 290 46
425 54 52 3 102 8 110 10 45 14 407 32 495 25 17 -1 100 1 185 4 92 4 173 3
200 -3 25 -6 84 -14 131 -19 54 -6 103 -18 131 -32 52 -26 86 -25 270 9 133
24 174 20 237 -24 21 -14 62 -35 92 -46 54 -21 78 -42 79 -69 0 -28 59 -80 89
-80 16 0 57 -9 91 -20 75 -24 111 -25 151 -5 22 12 45 14 93 9 60 -6 64 -5 82
20 48 68 48 68 97 68 47 0 49 1 70 44 18 38 20 50 11 94 -10 48 -9 51 18 75
32 29 34 37 14 73 -21 38 -36 143 -25 165 6 9 21 17 35 17 36 0 104 56 104 84
0 12 -11 33 -24 45 -49 47 -67 110 -74 274 l-8 152 -59 87 c-78 113 -135 144
-169 93 -21 -32 -56 -32 -92 -1 -26 22 -28 28 -29 117 -1 52 -8 106 -14 120
-12 24 -20 27 -83 33 -38 3 -79 11 -90 17 -13 7 -24 7 -30 1 -15 -15 3 -63 28
-72 39 -15 61 -84 30 -96 -13 -5 -79 24 -128 58 -14 10 -35 18 -46 18 -12 0
-24 5 -27 10 -3 5 -15 10 -26 10 -11 0 -31 7 -44 16 -21 14 -24 22 -19 53 6
35 4 37 -38 58 -43 22 -97 25 -161 8 -33 -9 -53 5 -72 52 -12 27 -19 33 -45
33 -16 0 -47 9 -67 20 -21 11 -48 20 -60 20 -29 0 -65 -38 -54 -58 7 -13 106
-48 184 -66 24 -6 27 -11 27 -48 0 -78 -48 -100 -107 -48 -18 17 -45 30 -58
30 -14 0 -41 15 -62 34 -50 44 -66 51 -144 66 -80 16 -97 27 -114 77 -19 54
-6 73 48 73 54 0 80 18 75 51 -2 19 -13 27 -53 40 -82 26 -114 47 -135 89 -26
52 -26 55 16 79 30 18 35 25 32 54 -3 29 -8 34 -62 53 -81 29 -88 47 -42 113
19 29 43 78 52 109 9 31 36 104 60 162 29 69 44 120 44 147 0 38 -3 43 -27 49
-123 27 -150 40 -215 100 -47 44 -148 97 -246 129 -30 9 -68 30 -85 45 -38 32
-99 60 -135 60 -41 0 -151 -61 -184 -103 -17 -21 -53 -49 -82 -64 -52 -26
-184 -154 -221 -214 -27 -44 -149 -136 -199 -151 -63 -18 -397 -11 -461 9 -64
21 -140 70 -190 124 -22 23 -59 61 -82 83 -62 62 -162 185 -184 228 -11 21
-23 38 -28 38 -5 0 -42 31 -82 68 -87 81 -91 83 -193 112 l-79 22 -76 -38
c-42 -20 -92 -47 -111 -59 -19 -12 -52 -25 -72 -29 -21 -4 -41 -12 -45 -19 -5
-7 -26 -27 -48 -45 -31 -25 -42 -43 -51 -79 -10 -49 -10 -49 -125 -129 l-37
-25 -63 16 c-34 9 -79 25 -98 35 -59 29 -78 15 -85 -67 -4 -37 -11 -97 -18
-133 -13 -80 -13 -92 0 -260 10 -138 26 -230 40 -239 17 -12 52 -102 52 -134
0 -23 -11 -48 -35 -79 -45 -58 -79 -141 -79 -196 -1 -70 -20 -41 -29 44 -13
120 -36 133 -105 60 -38 -40 -46 -44 -77 -39 -27 4 -44 0 -73 -19 -28 -19 -55
-26 -109 -30 -72 -5 -73 -5 -128 -61 -74 -76 -91 -86 -164 -93 -51 -6 -65 -12
-78 -31 -10 -15 -29 -25 -54 -29 -22 -4 -56 -20 -76 -35 -21 -17 -48 -29 -65
-29 -28 0 -30 2 -23 28 5 15 9 38 9 52 1 21 -3 25 -29 25 -21 0 -33 -7 -41
-23 -6 -13 -23 -36 -38 -51 -37 -38 -33 -51 13 -51 38 0 68 -19 43 -28 -7 -2
-12 -10 -12 -17 0 -8 -8 -19 -18 -24 -26 -14 -62 -2 -62 20 0 24 -24 24 -58 1
-40 -27 -156 -82 -175 -82 -9 0 -27 -5 -41 -11 -38 -18 -166 -147 -166 -168 0
-10 -9 -39 -20 -64 -29 -64 -58 -190 -66 -277 -3 -41 -14 -94 -24 -116 -10
-23 -21 -73 -25 -111 -6 -60 -4 -76 14 -110 22 -43 20 -94 -4 -143 -44 -87
-48 -99 -42 -122 4 -14 16 -28 27 -31 19 -5 20 -12 18 -109 -3 -94 -1 -108 25
-162 32 -68 31 -66 12 -66 -32 0 -47 -78 -21 -112 7 -10 16 -18 20 -18 13 0
36 -28 36 -45 0 -25 -38 -94 -60 -107 -11 -7 -20 -18 -20 -24 0 -15 -24 -24
-64 -24 -41 0 -76 -29 -76 -64 0 -14 -4 -26 -10 -26 -5 0 -10 13 -10 29 0 21
-9 36 -31 53 -89 67 -119 114 -119 192 0 17 -8 39 -18 50 -10 12 -25 37 -32
56 -8 19 -22 42 -31 51 -9 9 -19 42 -23 75 -4 32 -14 66 -23 76 -13 14 -14 25
-5 60 6 24 13 77 17 118 6 69 5 78 -18 111 -13 19 -27 49 -31 65 -12 45 -25
54 -76 54 -45 0 -48 2 -53 30 -5 23 -12 30 -30 30 -13 0 -29 -6 -36 -12 -10
-11 -18 -7 -42 20 -16 18 -29 40 -29 50 0 9 -7 26 -15 36 -15 20 -21 97 -8
110 9 8 31 110 32 144 1 19 -4 22 -33 22 -26 0 -36 -5 -41 -20 -7 -23 -45 -27
-45 -6 0 8 4 18 10 21 6 3 10 17 10 31 0 13 5 24 10 24 6 0 10 16 10 36 0 28
-8 44 -35 71 -19 19 -35 39 -35 43 0 25 -34 66 -62 76 -18 6 -42 24 -53 41
-11 17 -31 35 -45 40 -16 6 -30 23 -39 49 -22 66 -38 83 -81 90 -30 5 -50 18
-85 55 -25 26 -45 54 -45 62 0 8 -9 22 -20 32 -11 10 -20 23 -20 28 0 6 -8 20
-18 31 -16 18 -67 175 -74 231 -2 13 -12 21 -30 23 -33 4 -50 24 -72 85 -10
27 -36 68 -57 93 -36 42 -39 50 -39 107 0 55 -3 64 -32 94 -18 18 -38 33 -45
33 -29 0 -75 58 -81 102 -3 23 -11 48 -18 55 -15 15 -54 17 -54 3 0 -15 -82
-12 -102 4 -19 14 -24 36 -9 36 4 0 9 24 9 53 1 44 -3 57 -27 85 -37 42 -87
45 -97 7 -3 -14 -10 -25 -15 -25 -5 0 -14 -12 -19 -26 -7 -19 -16 -25 -33 -22
-19 3 -22 10 -25 56 -2 33 3 64 12 84 9 17 16 48 16 69 0 42 19 59 64 59 21 0
26 5 26 25 0 14 5 25 11 25 15 0 5 218 -10 233 -13 13 -97 -7 -122 -29 -22
-20 -25 -18 -40 18 -9 22 -13 76 -12 168 0 126 7 185 34 319 8 41 7 61 -2 83
-7 17 -13 62 -14 102 -1 39 -9 197 -18 351 -12 194 -15 349 -11 505 3 124 5
248 5 275 -2 80 18 306 39 449 20 128 25 231 51 991 12 355 22 499 38 569 7
28 12 93 11 145 0 53 2 141 5 196 3 56 1 125 -5 158 -9 46 -8 73 4 130 8 40
20 117 26 172 6 55 16 125 21 155 5 30 14 113 19 184 11 142 17 173 61 292 16
44 29 90 29 103 0 12 6 34 14 49 8 15 31 79 51 142 61 186 84 222 198 310 49
38 79 70 94 100 43 87 73 176 73 216 0 27 8 54 25 78 29 43 31 63 8 88 -15 17
-15 19 2 38 27 29 83 61 87 48 2 -6 11 -4 21 6 17 18 24 86 9 86 -5 0 -14 10
-20 23 -9 18 -11 19 -11 4 -1 -15 -5 -16 -21 -7 -25 14 -25 32 0 55 15 14 20
15 20 4 1 -28 40 33 40 62 0 16 5 29 10 29 15 0 12 46 -5 60 -8 7 -17 27 -21
46 -3 19 -10 37 -15 40 -14 8 -10 57 6 77 7 10 19 40 25 67 15 61 -1 100 -44
111 -43 12 -70 43 -110 124 -35 71 -35 76 -37 201 -2 141 11 193 63 245 17 17
27 41 31 74 6 46 11 53 52 78 49 32 61 57 51 116 -6 40 16 134 53 215 11 26
54 84 94 129 89 98 137 179 137 230 0 32 5 40 38 61 22 13 69 61 106 105 37
45 72 81 78 81 5 0 21 14 35 30 13 17 30 30 37 30 27 0 88 54 110 98 13 26 33
54 43 62 10 9 27 27 38 41 11 13 34 30 50 37 42 18 67 42 90 87 11 21 34 47
50 57 44 26 147 74 189 88 20 6 57 23 81 37 25 13 72 28 106 33 34 5 66 15 70
22 6 10 43 13 142 13 111 0 137 3 160 18 16 10 30 24 33 32 3 7 23 16 44 20
22 4 51 19 69 35 33 32 127 100 138 100 3 0 31 17 61 37 48 34 62 38 128 41
51 3 88 -1 121 -13 26 -9 78 -18 115 -21 l67 -5 25 38 c33 50 117 93 195 100
49 5 65 11 102 44 25 22 55 39 69 39 45 1 63 24 57 70 -4 33 -1 43 17 58 12 9
32 34 45 55 46 76 106 84 270 36 124 -36 197 -36 274 0 43 20 54 21 95 11 130
-31 146 -34 150 -22 7 22 33 42 54 42 21 0 58 -26 58 -41 0 -4 18 -26 39 -48
46 -48 80 -53 109 -16 11 14 27 25 35 25 8 0 17 4 19 9 2 5 43 15 91 22 85 12
89 11 115 -10 15 -11 36 -25 48 -30 11 -5 34 -23 51 -39 16 -17 36 -31 44 -32
63 -9 65 22 5 82 -39 39 -62 69 -120 160 -17 27 -17 31 -3 45 24 24 77 9 149
-42 35 -24 86 -60 115 -80 68 -48 118 -65 157 -54 42 12 56 34 56 88 0 72 9
93 34 84 11 -3 44 -7 73 -7 38 -1 60 -8 84 -25 39 -29 117 -41 130 -20 5 8 9
40 9 72 0 62 17 77 38 33 19 -43 45 -66 75 -66 40 0 78 -22 124 -74 46 -51 57
-54 133 -29 42 13 55 23 70 53 10 20 35 56 54 79 20 24 36 51 36 62 0 10 9 28
20 39 18 18 22 18 66 5 25 -7 71 -30 102 -50z m-1124 49 c9 -3 16 -12 16 -19
0 -7 6 -15 13 -18 6 -2 8 -8 4 -13 -4 -5 -11 -3 -15 3 -4 6 -16 12 -27 14 -11
3 -21 12 -23 22 -4 18 6 21 32 11z m6096 -714 c0 -5 -2 -10 -4 -10 -3 0 -8 5
-11 10 -3 6 -1 10 4 10 6 0 11 -4 11 -10z m-12370 -1190 c0 -5 -4 -10 -10 -10
-5 0 -10 5 -10 10 0 6 5 10 10 10 6 0 10 -4 10 -10z m7701 -9289 c20 -16 22
-23 14 -47 -11 -31 -38 -40 -80 -30 -43 11 -38 62 10 85 28 14 30 13 56 -8z
m-2761 -326 c0 -8 -4 -15 -10 -15 -5 0 -10 7 -10 15 0 8 5 15 10 15 6 0 10 -7
10 -15z m2680 -80 c32 -17 35 -22 21 -44 -5 -8 -16 -11 -29 -7 -26 9 -72 45
-72 57 0 14 48 11 80 -6z m-3234 -46 c3 -6 -1 -18 -10 -27 -15 -15 -16 -14
-16 11 0 27 13 36 26 16z m2900 -126 c44 -51 72 -97 79 -130 3 -21 13 -48 21
-60 22 -34 99 -83 132 -83 16 0 35 -7 42 -15 15 -18 44 -19 58 -2 5 6 13 31
17 54 3 23 13 47 21 54 21 18 82 4 123 -28 20 -16 48 -36 63 -46 15 -9 34 -30
42 -46 31 -58 70 -48 81 22 8 49 30 87 50 87 24 0 139 -68 164 -96 19 -22 28
-25 58 -19 30 5 41 2 72 -23 56 -45 74 -52 167 -61 87 -9 88 -9 123 -52 40
-48 44 -51 90 -82 22 -14 40 -37 50 -65 15 -42 15 -44 -4 -58 -10 -8 -31 -14
-47 -14 -18 0 -28 -5 -28 -15 0 -8 5 -15 11 -15 6 0 32 -15 58 -34 26 -19 59
-38 73 -41 36 -9 51 -53 35 -103 -10 -30 -17 -38 -42 -40 -16 -2 -47 1 -68 8
-36 10 -42 9 -80 -16 -41 -27 -42 -27 -87 -11 -25 8 -65 18 -90 22 -75 11
-213 56 -245 80 -38 28 -53 33 -134 45 -36 6 -102 17 -146 25 -113 21 -115 20
-115 -15 0 -16 5 -30 10 -30 18 0 11 -76 -7 -92 -35 -31 -206 -68 -328 -72
-52 -2 -143 -45 -195 -93 -32 -30 -58 -29 -72 1 -6 14 -16 27 -22 29 -24 9
-282 -10 -305 -22 -20 -11 -35 -11 -79 -1 -39 9 -57 9 -65 1 -6 -6 -35 -11
-64 -11 -32 0 -63 -6 -78 -16 -20 -13 -32 -14 -87 -3 -77 14 -93 24 -168 100
-56 56 -60 59 -108 59 -58 0 -82 -17 -83 -58 0 -27 0 -27 -11 -4 -15 30 -78
32 -78 3 0 -26 -14 -34 -50 -26 -23 5 -30 12 -30 31 0 24 0 24 -110 24 -93 0
-110 2 -110 16 0 22 -25 44 -49 44 -12 0 -21 6 -21 15 0 10 -11 15 -35 15
l-35 0 0 71 c0 86 -11 98 -87 99 -48 0 -53 2 -59 26 l-7 26 -81 -7 c-44 -4
-106 -13 -136 -21 -37 -10 -97 -14 -180 -12 l-125 2 -60 -34 c-48 -28 -77 -36
-140 -43 -108 -11 -111 -11 -140 10 -33 24 -26 58 20 96 19 16 43 48 54 72 17
39 171 205 189 205 17 -1 33 -19 41 -46 10 -40 41 -43 63 -6 13 22 29 31 70
40 101 21 113 25 141 48 34 28 66 30 131 8 65 -23 126 -6 164 45 53 70 71 72
103 10 11 -22 26 -39 33 -39 22 0 39 66 34 134 -6 69 4 106 27 106 9 0 40 -18
70 -41 49 -37 58 -40 94 -34 28 5 50 2 72 -9 38 -19 90 -21 108 -3 11 10 15 9
19 -2 10 -29 51 -61 77 -61 16 0 45 16 74 40 58 49 102 64 128 44 29 -22 47
-17 96 27 59 51 79 48 92 -12 12 -55 27 -75 63 -84 15 -3 49 -17 75 -31 55
-28 66 -24 88 29 19 45 32 56 81 66 83 17 163 41 166 51 7 19 47 10 91 -20 24
-17 52 -30 61 -30 25 0 50 43 50 85 0 68 39 98 76 58z m-2979 -60 c-3 -10 -5
-2 -5 17 0 19 2 27 5 18 2 -10 2 -26 0 -35z m4643 -127 c0 -8 -4 -17 -9 -21
-12 -7 -24 12 -16 25 9 15 25 12 25 -4z m-7940 -85 c5 -11 10 -44 9 -73 0 -39
-3 -48 -9 -33 -5 11 -20 33 -34 49 -30 34 -33 51 -8 65 24 15 30 14 42 -8z
m3627 -293 c-3 -8 -6 -5 -6 6 -1 11 2 17 5 13 3 -3 4 -12 1 -19z m6471 -1386
c3 -66 1 -72 -16 -72 -25 0 -32 19 -32 79 0 46 14 75 35 68 5 -2 11 -36 13
-75z m-291 -358 c-9 -9 -28 6 -21 18 4 6 10 6 17 -1 6 -6 8 -13 4 -17z m145
-131 c27 -33 38 -74 38 -138 0 -54 -3 -65 -20 -70 -47 -15 -90 38 -90 111 0
96 34 142 72 97z m-225 -149 c-3 -3 -12 -4 -19 -1 -8 3 -5 6 6 6 11 1 17 -2
13 -5z"/>
<path d="M8400 26086 c-25 -6 -67 -29 -95 -50 -150 -112 -201 -155 -234 -197
-91 -114 -156 -179 -195 -194 -22 -9 -54 -28 -72 -43 -17 -15 -57 -47 -88 -71
-31 -24 -82 -76 -113 -114 -30 -38 -70 -75 -87 -82 -51 -22 -66 -46 -76 -126
-5 -41 -13 -90 -19 -109 -6 -19 -8 -42 -6 -52 3 -9 1 -63 -5 -120 l-10 -103
40 -38 c22 -21 40 -42 40 -47 0 -13 -40 -49 -62 -56 -11 -3 -18 -15 -18 -30 0
-13 -9 -32 -20 -41 -24 -21 -26 -59 -4 -113 15 -38 15 -41 -5 -75 -26 -44 -26
-50 -1 -75 24 -24 51 -25 96 -4 41 19 44 45 9 68 -30 20 -32 47 -5 64 15 9 45
11 110 6 l89 -7 -6 -58 c-7 -68 23 -240 44 -252 7 -4 13 -13 13 -20 0 -7 13
-19 28 -28 43 -24 74 -99 66 -158 -7 -58 15 -108 75 -169 22 -22 43 -52 47
-67 6 -26 29 -39 124 -72 57 -20 100 -50 100 -71 0 -14 15 -41 70 -122 9 -14
24 -39 33 -56 12 -24 25 -33 54 -38 62 -11 94 -28 132 -69 72 -78 121 -88 316
-70 74 7 111 15 142 32 32 18 48 22 75 16 51 -12 147 -9 163 5 21 17 19 53 -4
78 -23 27 -77 29 -162 5 l-62 -17 -18 25 c-11 13 -32 40 -49 60 -56 70 -51 87
70 216 53 57 84 112 78 139 -1 9 -21 26 -43 36 -22 11 -56 27 -75 36 -23 11
-42 32 -57 62 -30 61 -28 77 11 116 35 35 76 45 96 22 35 -42 99 -155 116
-204 15 -45 28 -63 64 -90 25 -18 57 -42 72 -54 60 -47 188 -45 528 5 52 7
122 17 155 20 33 4 75 14 93 22 42 20 98 95 145 193 48 101 91 159 133 176 35
15 36 14 84 -26 56 -47 140 -159 140 -188 0 -42 -24 -84 -61 -108 -22 -13 -39
-31 -39 -40 0 -13 20 -14 168 -9 114 5 183 3 217 -5 28 -7 132 -15 232 -19
113 -5 188 -12 196 -20 21 -17 26 -93 11 -163 -19 -95 -10 -104 110 -113 89
-7 129 -5 203 11 30 6 34 3 54 -30 17 -30 27 -36 47 -34 20 2 28 11 34 35 5
21 19 38 37 48 21 10 31 25 35 50 5 27 24 53 67 95 54 53 61 65 73 122 16 72
32 139 77 326 25 105 30 145 25 189 -7 57 -28 109 -47 115 -7 2 -13 44 -16
108 -4 89 -2 114 16 164 24 68 26 118 7 198 -17 69 -45 111 -86 128 -36 15
-60 55 -60 100 0 35 -31 100 -60 128 -11 11 -38 24 -60 31 -30 9 -47 24 -79
71 -23 33 -41 64 -41 70 0 20 -51 42 -131 56 -51 9 -91 22 -103 33 -26 24
-115 76 -146 86 -13 4 -51 24 -85 45 -63 38 -120 56 -216 65 -32 4 -84 19
-120 37 -54 26 -80 32 -169 37 -73 4 -113 11 -130 23 -14 9 -72 28 -129 42
-91 22 -109 24 -148 13 -42 -11 -46 -10 -63 11 -10 12 -16 30 -13 41 3 10 -1
22 -9 27 -18 11 -94 23 -213 34 -106 9 -148 17 -260 51 -156 47 -408 64 -696
49 -15 0 -62 18 -105 41 l-79 43 -130 2 c-80 2 -147 -2 -175 -10z m1227 -1340
c33 -16 83 -74 83 -94 0 -28 -64 -44 -219 -53 -369 -23 -428 -28 -466 -39 -32
-10 -55 -10 -118 1 -43 8 -78 19 -79 24 0 6 17 16 38 24 21 7 67 24 101 37 34
13 82 24 108 24 26 0 74 11 109 25 184 73 194 76 306 72 72 -3 116 -10 137
-21z"/>
<path d="M14998 25981 c-48 -41 -71 -51 -122 -51 -24 0 -75 -7 -111 -15 -37
-9 -97 -15 -135 -13 -61 2 -73 -1 -110 -27 -23 -16 -65 -38 -94 -50 -47 -18
-54 -26 -88 -90 -49 -95 -63 -97 -55 -9 3 38 3 87 -1 109 -6 34 -11 40 -32 40
-21 0 -32 -13 -65 -75 -75 -141 -98 -163 -142 -135 -24 16 -26 16 -51 -7 -40
-35 -42 -39 -42 -99 0 -65 -16 -119 -35 -119 -21 0 -28 36 -14 77 7 21 17 42
21 48 16 18 8 46 -22 78 -16 17 -35 44 -41 59 -6 16 -18 28 -25 28 -26 0 -38
-53 -39 -172 0 -76 -4 -121 -12 -129 -9 -9 -25 -6 -70 12 -32 13 -65 29 -74
36 -23 19 -25 17 -49 -32 -25 -52 -53 -64 -98 -41 -80 41 -109 7 -66 -79 24
-46 26 -58 16 -80 -6 -14 -29 -32 -49 -41 -77 -33 -73 -29 -93 -109 -23 -90
-23 -103 -1 -145 12 -22 21 -50 21 -61 0 -11 16 -49 35 -83 30 -55 34 -68 29
-112 -4 -38 0 -64 20 -117 15 -37 24 -78 21 -90 -3 -12 3 -39 15 -62 11 -21
20 -56 20 -77 0 -29 8 -47 35 -77 47 -52 66 -101 72 -188 4 -43 11 -78 19 -84
8 -6 14 -18 14 -25 0 -9 12 -14 34 -14 26 0 50 13 107 58 70 55 169 102 215
102 30 0 64 -29 64 -54 0 -17 -27 -49 -95 -112 -52 -48 -99 -90 -104 -93 -5
-3 -12 -20 -15 -37 -9 -39 4 -49 69 -58 28 -4 129 -23 225 -43 153 -31 192
-35 304 -34 71 1 138 7 148 12 25 13 23 33 -6 48 -40 22 -49 56 -28 104 10 23
22 53 25 67 4 16 28 39 66 63 33 21 67 50 76 63 9 14 32 32 50 40 43 17 119
18 133 1 15 -17 62 -164 62 -191 0 -33 40 -186 58 -221 34 -69 99 -108 236
-142 115 -28 456 -50 514 -34 37 11 93 48 106 70 5 9 26 32 46 51 64 61 136
174 159 252 42 137 62 150 157 102 75 -38 194 -182 194 -235 0 -19 -4 -39 -9
-45 -5 -5 -29 -48 -55 -95 l-45 -86 20 -22 c14 -15 32 -21 60 -21 26 0 50 -7
67 -20 14 -11 45 -25 68 -31 24 -6 55 -24 71 -40 15 -16 36 -29 45 -29 9 0 18
-6 20 -12 3 -9 16 -8 49 7 58 25 76 41 83 73 17 72 26 82 71 82 23 0 56 3 74
6 44 9 143 99 159 144 8 25 22 42 40 49 41 17 73 73 93 164 10 45 21 93 25
105 4 13 1 48 -6 77 -11 47 -11 55 4 70 21 21 22 108 1 125 -8 7 -15 18 -15
26 0 7 -16 30 -37 51 -25 26 -40 54 -48 88 -10 44 -17 54 -61 81 -27 17 -69
49 -93 70 -24 22 -75 55 -115 74 -53 26 -78 45 -98 76 -16 24 -44 49 -65 59
-100 47 -115 75 -72 135 24 33 35 40 63 40 18 0 51 -7 71 -16 21 -9 81 -22
134 -30 53 -9 107 -23 121 -33 23 -16 133 -70 190 -93 75 -30 84 -38 95 -91
17 -83 230 -183 281 -133 8 8 14 19 14 24 0 17 32 23 67 11 18 -6 39 -9 45 -7
17 6 11 73 -9 117 -12 26 -13 42 -6 65 7 22 6 43 -3 69 -15 43 -15 43 74 72
29 9 56 24 59 32 3 8 -5 33 -17 55 -13 23 -25 54 -26 71 -4 34 -64 108 -136
168 -50 42 -50 43 -44 89 5 37 3 50 -11 63 -78 71 -119 101 -164 118 -29 11
-77 43 -110 73 -44 39 -75 58 -129 75 -38 13 -89 37 -113 54 -23 17 -78 46
-122 66 -78 34 -83 35 -225 36 -99 2 -162 7 -200 19 -30 8 -67 16 -82 16 -33
0 -58 24 -58 55 0 27 45 85 66 85 8 0 14 7 14 15 0 33 -71 12 -127 -38 -21
-18 -45 -36 -53 -39 -27 -10 -155 20 -226 53 -73 33 -67 33 -228 13 -28 -4
-73 -1 -101 5 -29 7 -96 15 -150 20 -107 9 -157 1 -232 -37 -60 -31 -99 -28
-163 13 -44 29 -64 35 -107 35 -43 0 -58 -5 -85 -29z m837 -1187 c50 -8 119
-19 155 -24 79 -11 102 -19 164 -58 27 -17 62 -34 80 -37 38 -8 174 -72 199
-93 9 -8 17 -20 17 -25 0 -15 -79 -1 -162 28 -81 29 -198 45 -198 27 0 -15 54
-52 77 -52 10 0 53 -18 95 -39 60 -29 94 -56 157 -122 45 -46 81 -87 81 -90 0
-10 -27 -18 -83 -25 -39 -5 -75 0 -147 20 -52 14 -107 26 -121 26 -37 0 -173
37 -242 66 -56 24 -77 26 -282 34 -170 6 -228 11 -251 23 -17 9 -89 27 -160
42 -160 32 -184 41 -184 69 0 19 16 29 98 64 53 23 124 49 157 58 80 22 300
30 420 14 107 -13 139 -6 106 24 -27 24 -87 45 -136 46 -22 1 -49 5 -60 10
-18 7 -17 8 10 15 17 4 35 8 40 10 23 8 85 4 170 -11z m-1467 -1016 c5 -25
-11 -30 -124 -33 -83 -2 -107 0 -111 11 -14 36 2 42 119 40 96 -1 113 -3 116
-18z"/>
<path d="M18190 24171 c-5 -11 -10 -48 -10 -83 0 -55 -4 -71 -32 -114 -31 -46
-33 -54 -33 -141 1 -96 11 -123 46 -123 21 0 39 28 39 62 0 13 14 42 30 66 33
49 45 105 45 207 0 56 -5 78 -23 108 -26 41 -46 47 -62 18z"/>
<path d="M10830 23541 c0 -24 23 -33 55 -21 41 16 32 40 -15 40 -33 0 -40 -4
-40 -19z"/>
<path d="M14859 23074 c20 -26 79 -54 176 -85 38 -11 95 -12 95 0 0 10 -57 54
-85 65 -25 10 -128 35 -174 43 l-34 6 22 -29z"/>
<path d="M7108 20398 c-31 -11 -37 -40 -13 -65 13 -12 20 -13 45 -1 26 11 30
18 28 43 -3 33 -18 39 -60 23z"/>
<path d="M17750 18467 c-35 -17 -38 -56 -6 -86 14 -13 33 -21 47 -19 45 6 44
118 0 118 -9 0 -27 -6 -41 -13z"/>
<path d="M17682 17988 c-17 -17 -15 -53 3 -68 9 -8 28 -10 50 -6 28 6 35 11
35 30 0 17 -10 28 -34 40 -41 19 -39 19 -54 4z"/>
<path d="M17580 17781 c-21 -39 -9 -101 19 -101 28 0 50 65 35 104 -8 22 -41
20 -54 -3z"/>
<path d="M10109 17523 c-14 -36 -5 -66 32 -108 24 -27 39 -35 65 -35 l34 0 0
79 c0 88 -2 91 -83 91 -32 0 -39 -4 -48 -27z"/>
<path d="M10339 17539 c-59 -22 -83 -179 -26 -179 11 0 30 -11 43 -25 13 -14
27 -25 32 -25 5 0 15 -7 22 -15 13 -15 60 -21 60 -7 0 4 11 20 25 36 34 39 33
81 -1 98 -19 9 -31 28 -42 63 -9 28 -21 53 -26 57 -15 10 -55 9 -87 -3z"/>
<path d="M10663 17330 c-12 -5 -27 -19 -33 -31 -7 -12 -28 -37 -46 -56 -31
-30 -34 -39 -34 -91 0 -54 2 -59 31 -76 l31 -18 -7 -67 c-4 -36 -13 -78 -21
-93 -18 -35 -18 -62 1 -78 13 -10 27 -11 70 -1 30 7 59 10 65 6 6 -3 19 -24
30 -45 24 -47 38 -55 107 -65 59 -8 75 -25 87 -90 6 -30 22 -54 62 -94 29 -29
56 -62 59 -72 4 -11 12 -19 19 -19 23 0 43 -34 48 -82 5 -45 12 -54 95 -136
104 -102 129 -113 272 -121 l95 -6 8 -35 c18 -72 81 -89 168 -45 80 41 109 28
87 -38 -16 -49 -9 -52 112 -51 110 2 111 2 148 34 33 30 41 32 88 27 46 -5 54
-2 84 24 51 44 80 39 151 -26 74 -68 91 -64 116 23 9 31 18 59 20 61 2 2 21
-14 42 -37 37 -39 42 -42 93 -42 32 1 62 7 73 15 11 8 36 15 56 15 36 0 120
48 120 69 0 20 70 42 113 36 31 -5 58 -1 100 15 47 18 63 20 89 11 65 -23 112
-12 133 30 21 39 71 52 155 38 54 -8 70 -7 101 6 30 14 39 25 52 69 10 29 17
60 17 70 0 23 44 91 72 110 26 18 68 20 117 6 48 -13 71 1 71 46 0 31 4 37 35
50 40 16 46 44 19 95 -24 48 -15 72 29 83 33 8 46 6 80 -12 23 -12 46 -22 51
-22 10 0 -1 84 -16 123 -8 21 -8 31 1 40 6 6 11 25 11 43 0 43 21 58 70 51
l40 -5 0 38 c0 55 -24 78 -95 91 -33 6 -79 20 -103 31 -32 15 -56 19 -95 15
-63 -6 -152 -29 -192 -50 -55 -28 -205 -47 -387 -48 -9 0 -38 7 -65 17 -30 10
-95 19 -173 22 -100 5 -601 4 -910 -1 -30 -1 -194 4 -363 12 -247 10 -318 10
-357 0 -54 -14 -164 -1 -228 27 -18 8 -61 14 -95 14 -55 0 -68 4 -111 35 -27
19 -58 35 -68 35 -10 0 -29 7 -42 15 -12 8 -41 14 -64 13 -34 -1 -50 6 -96 41
-81 60 -134 75 -193 51z"/>
<path d="M13650 15126 c0 -41 24 -65 48 -49 22 14 17 43 -11 65 -31 25 -37 22
-37 -16z"/>
<path d="M12422 19033 c2 -10 12 -18 23 -18 11 0 21 8 23 18 3 13 -3 17 -23
17 -20 0 -26 -4 -23 -17z"/>
<path d="M11863 18785 c-15 -17 -17 -65 -4 -65 5 0 13 -9 16 -20 3 -11 15 -20
26 -20 10 0 19 -4 19 -10 0 -5 7 -10 15 -10 12 0 15 -14 15 -65 l0 -65 50 0
c28 0 50 4 50 9 0 5 18 11 40 15 22 3 49 14 60 23 27 23 27 70 0 78 -11 3 -20
10 -20 14 0 11 -44 28 -91 35 -37 6 -63 28 -83 69 -14 27 -74 35 -93 12z"/>
<path d="M13690 33852 c0 -16 6 -20 30 -18 31 2 53 15 29 18 -31 3 -34 4 -46
11 -9 6 -13 2 -13 -11z"/>
<path d="M13920 33822 c0 -31 -11 -52 -26 -52 -8 0 -14 -4 -14 -10 0 -5 -9
-10 -20 -10 -11 0 -20 4 -20 10 0 5 -11 9 -25 8 -17 -2 -25 -8 -25 -20 0 -15
9 -18 55 -18 70 0 108 16 95 41 -11 20 10 31 45 24 11 -2 25 -4 32 -4 6 -1 9
-10 6 -21 -4 -14 0 -20 11 -20 9 0 25 -5 36 -12 16 -10 22 -9 37 8 10 11 30
27 46 37 15 10 27 21 27 26 0 10 -52 18 -172 27 -84 6 -88 5 -88 -14z"/>
<path d="M13490 33801 c0 -24 92 -51 174 -51 l58 0 -7 27 c-4 16 -8 30 -11 32
-2 2 -51 6 -109 8 -97 3 -105 2 -105 -16z"/>
<path d="M17997 31523 c-4 -3 -7 -17 -7 -30 0 -18 5 -23 25 -23 33 0 45 28 20
46 -21 16 -29 17 -38 7z"/>
<path d="M19357 23157 c-38 -23 -85 -52 -105 -64 -48 -28 -182 -163 -182 -183
0 -8 21 -35 45 -58 26 -25 48 -56 52 -73 7 -37 75 -99 109 -99 14 0 55 -16 91
-35 36 -19 78 -35 94 -35 36 0 82 40 109 95 18 37 20 54 14 102 -3 32 -15 80
-26 108 -15 39 -18 63 -13 115 5 55 3 70 -15 98 -19 31 -73 72 -95 72 -5 0
-41 -19 -78 -43z"/>
<path d="M6180 20656 c0 -19 79 -116 95 -116 23 0 27 33 7 60 -19 26 -78 70
-93 70 -5 0 -9 -6 -9 -14z"/>
<path d="M17042 13853 c-10 -16 -27 -57 -37 -93 -10 -36 -30 -108 -45 -160
-16 -52 -31 -113 -35 -135 -4 -22 -16 -65 -27 -95 -45 -126 -158 -528 -158
-565 0 -17 -18 -68 -40 -114 -22 -46 -45 -104 -51 -130 -6 -25 -30 -92 -55
-148 -24 -56 -44 -108 -44 -116 0 -8 -26 -66 -59 -129 -32 -63 -62 -129 -66
-148 -6 -29 -35 -102 -80 -205 -7 -16 -21 -57 -30 -90 -9 -33 -34 -89 -55
-125 -21 -36 -48 -87 -60 -115 -12 -27 -29 -59 -39 -70 -23 -25 -115 -203
-131 -251 -7 -20 -32 -58 -56 -85 -24 -27 -51 -64 -60 -82 -9 -17 -23 -40 -31
-49 -8 -9 -28 -43 -44 -75 -77 -156 -163 -311 -184 -333 -31 -33 -111 -152
-143 -215 -15 -27 -32 -56 -39 -63 -7 -7 -13 -19 -13 -26 0 -7 -13 -30 -30
-51 -16 -21 -35 -56 -40 -79 -6 -22 -22 -65 -36 -94 -14 -30 -28 -69 -31 -88
-3 -18 -14 -41 -24 -50 -11 -9 -19 -25 -19 -34 0 -10 -11 -34 -25 -55 -27 -39
-46 -125 -27 -125 6 0 43 15 84 33 40 19 106 49 146 67 43 20 85 48 105 70 17
20 57 54 87 77 72 53 83 66 120 146 26 55 51 86 146 176 63 60 114 113 114
118 0 5 23 48 50 97 79 136 230 438 230 458 0 10 24 64 54 121 30 56 59 123
66 147 7 25 21 63 33 85 21 42 122 335 161 470 28 95 61 179 86 220 10 17 32
74 48 127 17 53 41 123 55 155 41 95 106 284 117 338 6 28 23 84 39 125 16 41
32 95 36 120 8 49 31 122 95 300 67 184 69 196 81 344 17 218 1 303 -76 395
-33 38 -39 38 -63 4z"/>
<path d="M15129 9623 c-54 -28 -108 -90 -109 -124 0 -24 26 -42 49 -34 19 6
79 80 113 140 31 54 24 57 -53 18z"/>
<path d="M7250 9570 c-99 -11 -188 -44 -229 -84 -34 -33 -245 -166 -263 -166
-14 0 -127 -80 -145 -104 -27 -33 -83 -71 -134 -90 -26 -9 -72 -37 -104 -61
-32 -25 -84 -59 -115 -76 -37 -19 -73 -50 -99 -82 -22 -29 -45 -58 -51 -64 -6
-7 -15 -24 -20 -38 -9 -24 -7 -25 63 -45 40 -11 86 -25 103 -30 17 -6 43 -10
58 -10 30 0 126 -28 141 -41 5 -5 19 -9 31 -9 12 0 57 -14 99 -31 42 -17 102
-35 134 -41 31 -6 79 -16 106 -23 123 -32 203 -46 312 -55 192 -16 284 -27
361 -44 41 -9 77 -14 81 -11 5 2 32 -5 62 -16 85 -32 111 -39 151 -39 20 0 40
-4 43 -10 14 -22 77 -39 173 -45 l102 -7 0 30 c0 21 -9 40 -29 59 -47 46 -195
216 -215 246 -9 16 -33 46 -52 66 -47 53 -101 144 -108 187 -4 19 -30 76 -57
127 -28 51 -59 124 -69 162 -11 39 -30 97 -43 131 -13 33 -30 84 -37 112 -8
37 -22 60 -46 82 -38 33 -65 35 -204 20z"/>
<path d="M17115 9494 c-24 -26 -59 -123 -85 -234 -15 -64 -57 -194 -75 -230
-7 -14 -23 -34 -35 -45 -13 -11 -29 -35 -37 -54 -13 -29 -12 -35 2 -51 13 -15
22 -17 41 -10 13 5 24 7 24 5 0 -3 15 3 33 13 17 10 53 26 80 36 26 10 47 24
47 32 0 8 9 14 19 14 11 0 23 5 26 11 4 6 14 8 22 5 20 -8 53 11 54 32 0 9 21
31 47 47 33 21 50 40 57 63 5 17 13 32 17 32 5 0 6 10 3 23 -8 32 7 48 46 48
41 1 79 17 79 36 0 7 5 13 10 13 18 0 10 25 -17 54 -14 16 -49 39 -77 51 -28
13 -76 39 -106 59 -30 20 -59 36 -64 36 -5 0 -17 6 -25 14 -33 29 -59 29 -86
0z"/>
<path d="M17768 9118 c-43 -15 -36 -48 22 -102 28 -26 64 -72 81 -102 17 -30
44 -62 60 -71 15 -9 33 -30 38 -45 6 -18 17 -28 30 -28 12 0 22 -9 27 -22 3
-13 15 -35 25 -50 11 -14 19 -36 19 -48 0 -15 5 -20 18 -18 21 4 52 -21 52
-43 0 -21 74 -30 181 -22 56 4 79 3 79 -6 0 -6 5 -11 11 -11 7 0 27 -16 45
-36 19 -19 38 -33 43 -30 5 4 16 -1 24 -9 12 -11 38 -15 100 -15 98 0 117 5
117 30 0 18 -68 80 -87 80 -21 0 -74 33 -100 62 -70 77 -116 112 -221 165 -84
43 -131 74 -179 121 -36 34 -70 62 -77 62 -6 0 -35 15 -63 33 -28 17 -66 41
-85 52 -18 11 -50 30 -71 42 -41 25 -49 26 -89 11z"/>
<path d="M14509 8921 c-129 -144 -165 -186 -182 -213 -22 -37 -35 -128 -18
-128 21 0 107 88 130 132 12 24 42 68 66 98 74 92 98 129 91 145 -10 28 -43
15 -87 -34z"/>
<path d="M14089 8328 c-7 -13 -18 -29 -26 -36 -14 -14 -18 -42 -5 -42 23 1 72
62 72 89 0 20 -29 11 -41 -11z"/>
<path d="M13725 7908 c-65 -47 -85 -71 -85 -105 0 -18 5 -33 11 -33 6 0 38 27
70 60 78 80 80 132 4 78z"/>
<path d="M12845 6856 c-55 -24 -124 -112 -140 -178 -4 -16 -11 -28 -16 -28 -5
0 -9 -22 -9 -50 0 -33 4 -50 13 -50 18 0 155 150 168 185 6 17 20 46 30 66 34
66 20 84 -46 55z"/>
<path d="M10450 6757 c0 -40 53 -125 84 -137 12 -4 28 -15 35 -24 7 -9 19 -16
25 -16 16 0 90 -78 109 -115 19 -38 62 -79 125 -119 128 -81 151 -99 203 -158
65 -73 164 -143 223 -159 23 -5 55 -15 71 -21 49 -18 135 -22 135 -6 0 18
-189 212 -225 231 -16 9 -60 40 -97 69 -37 29 -86 64 -109 78 -23 14 -68 51
-99 82 -41 41 -83 70 -151 103 -139 68 -145 71 -196 131 -38 44 -107 94 -130
94 -2 0 -3 -15 -3 -33z"/>
<path d="M12586 6520 c-16 -10 -36 -33 -45 -52 -8 -18 -21 -39 -28 -46 -7 -7
-13 -17 -13 -22 0 -5 -21 -31 -46 -57 l-46 -47 5 -63 c12 -125 44 -134 97 -27
19 39 45 84 56 100 12 16 31 47 43 69 11 22 30 51 40 65 10 14 21 42 24 63 6
36 5 37 -26 36 -18 0 -45 -9 -61 -19z"/>
</g>
</svg>
